<svg width="100" height="100" viewBox="0 0 100 100" fill="none" xmlns="http://www.w3.org/2000/svg">
<path d="M36.1914 0.214844C34.668 0.46875 32.7148 1.26953 31.25 2.24609C29.4922 3.41797 27.3828 5.68359 26.5039 7.38281C25.8594 8.59375 25.7227 8.75 24.9609 8.96484C22.3047 9.74609 19.3945 12.2656 18.1055 14.8633C17.2656 16.582 16.7969 18.4961 16.7969 20.3125V21.582L15.8594 22.1094C12.9688 23.75 10.4688 27.168 9.45312 30.8789C8.92578 32.8125 8.96484 36.2305 9.53125 38.0469L9.98047 39.4727L8.71094 40.8203C6.54297 43.125 5.07812 46.7773 5.07812 49.8633C5.07812 52.2852 5.9375 55.5078 7.12891 57.5391L7.61719 58.3789L7.03125 59.3359C5.68359 61.5234 4.92188 64.8438 5.15625 67.4023C5.39062 69.9805 6.67969 73.0664 8.32031 74.9609L9.04297 75.8008L9.08203 78.1836C9.12109 80.0391 9.21875 80.8789 9.57031 81.9336C10.918 86.1328 13.4961 89.1602 17.2461 90.9375C18.7109 91.6211 20.8594 92.1875 22.1094 92.1875C22.7539 92.1875 22.9102 92.2852 23.457 93.1055C25.4297 96.0547 28.8672 98.4961 32.4023 99.4531C34.5703 100.039 38.0273 100.039 40.0977 99.4531C43.8867 98.3789 47.3828 95.7812 49.2773 92.6367C49.6289 92.0703 49.9414 91.6211 50 91.6211C50.0586 91.6211 50.3711 92.0703 50.7227 92.6367C52.6172 95.7812 56.1133 98.3789 59.9023 99.4531C61.9727 100.039 65.4297 100.039 67.5977 99.4531C71.1328 98.4961 74.5703 96.0547 76.543 93.1055C77.0898 92.2852 77.2461 92.1875 77.8906 92.1875C79.2383 92.1875 81.3477 91.6016 82.9688 90.8203C86.5625 89.043 89.1406 85.957 90.4297 81.9336C90.7812 80.8594 90.8789 80.0391 90.918 78.2031L90.9375 75.8203L91.6797 74.9805C92.6953 73.7891 93.7109 71.9336 94.2969 70.1562C94.707 68.9062 94.8047 68.2812 94.8047 66.4062C94.8047 63.7109 94.4727 62.3047 93.2812 59.9414L92.4414 58.2617L92.8906 57.5C94.0234 55.6445 94.9023 52.3633 94.9219 49.9414C94.9414 46.8164 93.4766 43.1445 91.2891 40.8203L90.0195 39.4727L90.4688 38.0469C91.0352 36.2305 91.0742 32.8125 90.5469 30.8789C89.5312 27.168 87.0312 23.75 84.1406 22.1094L83.2031 21.582V20.3125C83.2031 18.4961 82.7344 16.582 81.8945 14.8633C80.6055 12.2852 77.6562 9.74609 75.0391 8.96484C74.2773 8.75 74.1406 8.59375 73.4961 7.38281C71.4062 3.41797 66.8555 0.390625 62.5 0.078125C57.8516 -0.253906 53.4375 2.07031 50.3516 6.44531L50 6.93359L49.668 6.44531C46.2695 1.66016 41.3086 -0.644531 36.1914 0.214844ZM40.2539 4.17969C42.9688 4.80469 45.7617 7.14844 46.9531 9.78516C48.0078 12.0703 48.0469 12.5195 48.0469 21.3281C48.0469 25.8203 48.0078 29.4922 47.9688 29.4922C47.9297 29.4922 47.4805 29.2969 46.9531 29.0625C46.2891 28.7695 45.5859 28.6328 44.668 28.6328C43.3984 28.6133 43.3008 28.6523 42.7539 29.2578C41.5625 30.5859 42.3438 32.0703 44.4336 32.4414C45.8203 32.6758 46.6797 33.2031 47.4219 34.2578L47.9492 35.0195L48.0078 54.2578L48.0469 73.4961L46.7969 72.3242C44.6094 70.2734 42.2656 69.1016 39.0625 68.4375C36.8359 67.9883 35.625 68.125 34.9219 68.9258C34.2188 69.7266 34.1992 70.5078 34.9219 71.3086C35.3906 71.8359 35.625 71.9141 37.0117 72.0898C40.3906 72.5 42.7539 73.6133 44.8242 75.8203C48.7695 80 49.082 86.25 45.6055 91.1133C44.082 93.2617 42.168 94.6875 39.6484 95.5469C37.8125 96.1914 34.8242 96.1719 32.832 95.5273C30.0195 94.6094 27.7539 92.7344 26.1328 89.9805C25.6836 89.2578 25.1562 88.5547 24.9414 88.457C24.7461 88.3398 23.6719 88.2227 22.5781 88.2031C20.4297 88.1445 19.5898 87.9102 17.8516 86.7969C14.4336 84.6484 12.4219 80.3125 13.0469 76.4844C13.1836 75.7031 13.2227 74.9023 13.1641 74.6875C13.0859 74.4922 12.5 73.75 11.875 73.0664C9.82422 70.8203 8.82812 68.1836 9.04297 65.5273C9.14062 64.1797 9.70703 62.3438 10.2344 61.6211C10.4883 61.2695 10.5469 61.2891 11.6797 62.0508C13.7109 63.3984 16.3672 64.2578 18.6328 64.2578C19.2188 64.2578 19.5117 64.1211 20.0391 63.5938C20.9375 62.6953 20.9375 61.9141 20.0781 61.0547C19.5312 60.5078 19.2578 60.3906 18.1641 60.293C13.8672 59.9023 10.3516 56.6992 9.27734 52.1875C8.39844 48.5352 9.80469 44.6484 12.8906 42.2461C14.707 40.8398 14.7461 40.5273 13.5742 37.7148C12.0117 33.9648 13.3203 29.2578 16.7578 26.3086C20.918 22.7734 26.4258 23.457 30.1172 27.9492C31.3672 29.4727 32.4219 32.2852 32.4219 34.1211C32.4219 35.1953 33.1836 36.0938 34.1992 36.25C34.8047 36.3477 35.0195 36.2695 35.5664 35.7812C36.2305 35.1953 36.2305 35.1758 36.2109 33.5547C36.1914 30.8203 35.0391 27.8125 33.1055 25.3516C30.4883 22.0117 26.0938 19.9219 22.1875 20.1758L20.6641 20.2734L20.7812 19.2969C21.6211 13.0273 28.6523 10.2148 33.5547 14.1992C34.9023 15.293 35.918 15.3906 36.7969 14.5117C37.168 14.1406 37.3047 13.8086 37.3047 13.2227C37.3047 12.5195 37.1875 12.3047 36.25 11.4062C35.1367 10.332 33.0273 9.17969 31.4062 8.76953C30.8789 8.65234 30.4688 8.45703 30.4688 8.35938C30.4688 7.98828 33.125 5.54688 34.1016 5.03906C36.0938 3.96484 38.1641 3.67188 40.2539 4.17969ZM63.7695 4.19922C64.3945 4.375 65.3516 4.74609 65.8984 5.03906C66.875 5.54688 69.5312 7.98828 69.5312 8.35938C69.5312 8.45703 69.1211 8.65234 68.6133 8.76953C66.9727 9.17969 64.8633 10.332 63.75 11.4062C62.8125 12.3047 62.6953 12.5195 62.6953 13.2227C62.6953 13.8086 62.832 14.1406 63.2031 14.5117C64.082 15.3906 65.0977 15.293 66.4453 14.1992C67.6367 13.2422 68.6914 12.7539 70.1953 12.4805C74.2188 11.7383 78.2227 14.4531 79.082 18.5156C79.4727 20.3516 79.5117 20.293 77.793 20.1758C70.8789 19.7266 64.3164 25.8594 63.75 33.2812C63.6133 34.8633 63.6328 34.9023 64.1797 35.5273C65 36.4258 65.957 36.543 66.7773 35.8203C67.3242 35.3125 67.4219 35.0781 67.5977 33.7891C68.0859 29.7852 69.9805 26.875 73.2617 25.1172C76.5039 23.3594 80.293 23.8086 83.1836 26.2695C86.6797 29.2578 88.0078 33.9453 86.4258 37.7148C85.2539 40.5273 85.293 40.8398 87.1094 42.2461C90.1953 44.6484 91.6016 48.5352 90.7227 52.1875C90.0586 54.9805 88.3594 57.4023 86.0547 58.8867C84.7852 59.6875 83.6719 60.0781 81.8164 60.332C80.5859 60.4883 80.293 60.6055 79.8438 61.1328C79.1602 61.8945 79.1406 62.6758 79.8047 63.457C80.4297 64.2188 81.25 64.3555 83.1055 64.082C84.8828 63.8281 86.7773 63.0859 88.3203 62.0508C89.6875 61.1328 89.7266 61.1523 90.4492 63.0664C91.6992 66.3867 90.8008 70.1367 88.0469 73.1445C86.6992 74.6094 86.7188 74.5117 87.0117 77.3438C87.3438 80.7031 85.6836 84.1992 82.6953 86.4062C80.8984 87.7539 79.7461 88.1445 77.4219 88.2031C76.3281 88.2227 75.2539 88.3398 75.0586 88.457C74.8438 88.5547 74.3164 89.2578 73.8672 89.9805C72.2461 92.7344 69.9805 94.6094 67.168 95.5273C65.1758 96.1719 62.1875 96.1914 60.3516 95.5469C56.2109 94.1211 53.2617 90.7812 52.2656 86.3867C50.8398 80.0781 54.9219 73.6914 61.2305 72.3633C61.9922 72.207 62.9688 72.0703 63.418 72.0703C64.6289 72.0703 65.5273 71.25 65.5273 70.1172C65.5273 69.4336 65.4102 69.1992 64.8828 68.7305C64.1211 68.0469 63.125 67.9883 60.8008 68.4766C57.6953 69.1016 55.3516 70.293 53.2031 72.3242L51.9531 73.4961L51.9922 54.2578L52.0508 35.0391L52.5391 34.3164C53.2617 33.2617 54.2578 32.6172 55.4688 32.4805C56.9141 32.3047 57.7148 31.6016 57.7148 30.4688C57.7148 29.7852 57.5977 29.5508 57.0508 29.0625C56.4062 28.4961 56.3281 28.4766 55.1367 28.5742C54.4531 28.6523 53.4961 28.8672 52.9883 29.1016C52.5 29.3164 52.0703 29.4922 52.0312 29.4922C51.9922 29.4922 51.9531 25.8203 51.9531 21.3281C51.9531 14.5898 52.0117 12.9688 52.2461 12.0117C53.0664 8.88672 54.7266 6.66016 57.4023 5.13672C59.4922 3.94531 61.582 3.63281 63.7695 4.19922Z" fill="#1D56EB"/>
<path d="M39.5312 16.4062C38.9062 16.6601 38.2812 17.5585 38.2812 18.1835C38.2812 18.9648 39.1797 19.9023 40.0586 20.039C40.6641 20.1366 40.8789 20.0585 41.4258 19.5702C41.9727 19.082 42.0898 18.8476 42.0898 18.164C42.0898 17.4804 41.9727 17.246 41.4453 16.7773C40.8008 16.2109 40.2734 16.0937 39.5312 16.4062Z" fill="#1D56EB"/>
<path d="M21.9727 32.5975C21.7578 32.6952 21.4258 32.9491 21.211 33.1639C20.3125 34.1795 20.7422 37.4999 22.1875 40.4295C23.8477 43.7889 27.2656 46.621 30.7227 47.5194C31.3672 47.6952 31.9141 47.871 31.9727 47.9295C32.168 48.1053 31.7969 48.8475 31.0547 49.785C30.1563 50.9374 28.7695 51.66 26.9531 51.9335C25.3711 52.1874 24.707 52.7538 24.707 53.8866C24.707 54.8436 25.3516 55.6053 26.2891 55.7811C27.1875 55.9374 29.5508 55.4295 30.957 54.7655C33.125 53.7303 35.1758 51.2499 35.9375 48.7108C36.1719 47.9295 36.1914 47.91 37.5781 47.5975C39.3164 47.1874 41.7969 45.9764 43.0078 44.9217C44.375 43.7499 44.4727 42.5194 43.2813 41.5624C42.5391 40.9569 41.7188 41.1131 40.1367 42.2069C38.3789 43.3983 36.8945 43.9452 35.0586 44.0819C29.6289 44.4725 24.6094 39.8827 24.6094 34.5506C24.6094 33.9061 24.4727 33.6131 23.9453 33.0858C23.2813 32.4217 22.7539 32.285 21.9727 32.5975Z" fill="#1D56EB"/>
<path d="M36.3281 60.4883C31.4062 61.0156 26.5039 63.9844 23.7109 68.1445C23.0273 69.1602 22.8516 69.5898 22.8516 70.2734C22.8516 71.3672 23.5352 72.0703 24.5898 72.0703C25.5078 72.0703 25.9961 71.7188 26.9336 70.3516C28.2031 68.457 30.2344 66.7188 32.2656 65.7422C34.3164 64.7656 35.293 64.5117 37.4414 64.3164C38.6914 64.2188 39.0234 64.1016 39.5312 63.6523C40.0195 63.2227 40.1367 62.9688 40.1367 62.3047C40.1367 61.6211 40.0195 61.3867 39.4922 60.918C38.8477 60.332 38.3594 60.2734 36.3281 60.4883Z" fill="#1D56EB"/>
<path d="M21.9727 76.1523C20.1953 76.8945 20.5273 79.4921 22.4414 79.7851C25.0195 80.1952 25.6445 80.371 26.7969 81.0155C29.6094 82.5976 31.2891 84.8046 32.1289 87.9882C32.2852 88.6132 32.4219 89.5116 32.4219 89.9804C32.4219 91.0546 33.1836 91.953 34.1992 92.1093C34.8047 92.207 35.0195 92.1288 35.5664 91.6405C36.2305 91.0546 36.2305 91.0351 36.2109 89.414C36.1719 85.7226 34.1602 81.6991 31.0742 79.121C28.4375 76.9335 23.7891 75.4296 21.9727 76.1523Z" fill="#1D56EB"/>
<path d="M59.0625 16.4062C58.4375 16.6601 57.8125 17.5585 57.8125 18.1835C57.8125 18.9648 58.7109 19.9023 59.5898 20.039C60.1953 20.1366 60.4102 20.0585 60.957 19.5702C61.5039 19.082 61.6211 18.8476 61.6211 18.164C61.6211 17.4804 61.5039 17.246 60.9766 16.7773C60.332 16.2109 59.8047 16.0937 59.0625 16.4062Z" fill="#1D56EB"/>
<path d="M76.6406 32.6174C75.918 32.9103 75.3906 33.7697 75.3906 34.6486C75.3906 36.7775 74.1602 39.551 72.4414 41.2502C71.1328 42.5783 69.082 43.633 67.207 43.9846C64.8047 44.4338 61.8555 43.6525 59.4336 41.9338C58.3203 41.133 57.4024 40.9963 56.7188 41.5627C55.5274 42.5197 55.625 43.7502 56.9922 44.9221C58.2031 45.9767 60.6836 47.1877 62.4609 47.5978C63.8672 47.9299 63.8672 47.9494 64.082 48.7111C65 52.1096 67.9297 54.8244 71.4844 55.5861C73.3984 55.9963 73.9258 55.9377 74.6484 55.2931C75.1758 54.8244 75.293 54.59 75.293 53.926C75.293 52.7346 74.6094 52.1291 73.0078 51.9142C71.2695 51.6799 69.8633 50.9377 68.9453 49.7853C68.2031 48.8478 67.832 48.1056 68.0274 47.9299C68.0859 47.8713 68.6328 47.6955 69.2774 47.5197C72.7344 46.6213 76.1524 43.7892 77.8125 40.4299C78.8086 38.3791 79.4141 35.8791 79.2383 34.3947C79.082 32.9299 77.8711 32.1096 76.6406 32.6174Z" fill="#1D56EB"/>
<path d="M61.0156 60.5273C60.3906 60.8008 59.7656 61.6992 59.7656 62.3242C59.7656 62.6562 59.9805 63.125 60.3125 63.4766C60.8008 64.0234 61.0156 64.1016 62.8906 64.3555C64.0234 64.4922 65.3906 64.7656 65.918 64.9414C68.6719 65.8789 71.4648 67.9883 73.0664 70.3516C74.0039 71.7188 74.4922 72.0703 75.4102 72.0703C76.4648 72.0703 77.1484 71.3672 77.1484 70.2734C77.1484 69.5898 76.9727 69.1602 76.2695 68.125C73.9453 64.6484 70.0781 61.9336 66.0547 60.9375C64.2578 60.5078 61.582 60.293 61.0156 60.5273Z" fill="#1D56EB"/>
<path d="M74.6094 76.2891C72.9297 76.6407 70.3906 77.9102 68.9258 79.1211C65.957 81.6016 64.043 85.3126 63.75 89.1407C63.6133 90.7227 63.6328 90.7618 64.1797 91.3868C65 92.2852 65.957 92.4024 66.7773 91.6797C67.3242 91.1719 67.4219 90.9376 67.5976 89.6485C67.9687 86.5821 69.1016 84.3165 71.1914 82.3829C72.6367 81.0157 75.3711 79.9024 77.1875 79.8829C78.3008 79.8829 79.1992 79.004 79.1992 77.9297C79.1992 77.2461 79.082 77.0118 78.5547 76.543C78.0273 76.0547 77.7734 75.9766 76.8945 75.9961C76.3476 75.9961 75.3125 76.1329 74.6094 76.2891Z" fill="#1D56EB"/>
</svg>
