<svg width="100" height="100" viewBox="0 0 100 100" fill="none" xmlns="http://www.w3.org/2000/svg">
<path d="M48.7109 4.27711C47.0508 4.68727 45.3906 5.9568 43.2422 8.43727C42.5195 9.29665 42.3828 9.37477 41.6016 9.37477C40.9961 9.37477 40.5078 9.21852 39.8633 8.80836C38.125 7.69508 36.9922 7.34352 34.9609 7.34352C33.3203 7.32399 32.9883 7.38258 32.1289 7.85133C30.3125 8.78883 28.9258 10.6834 28.2227 13.1834C27.4805 15.7224 26.9336 16.1326 24.5703 15.8201C22.8516 15.6052 20.6445 15.8591 19.4531 16.3865C16.6797 17.617 15.332 20.5662 15.8008 24.3943C15.957 25.6638 15.957 26.1326 15.7422 26.6209C15.3906 27.4998 15.0977 27.6951 13.418 28.1052C10.7617 28.7888 8.90625 30.0193 7.87109 31.7966C7.46094 32.4998 7.32422 33.0076 7.26562 34.2576C7.16797 36.074 7.55859 37.4998 8.71094 39.6091C9.58984 41.2107 9.62891 42.3631 8.84766 42.9685C8.53516 43.1834 7.85156 43.7107 7.28516 44.1404C5.35156 45.6052 4.23828 47.8123 4.23828 50.1365C4.23828 51.3084 4.33594 51.7381 4.84375 52.7927C5.42969 53.9841 6.17188 54.7849 8.57422 56.8552C9.66797 57.7927 9.66797 58.5935 8.61328 60.5857C7.22656 63.1443 6.875 65.4881 7.53906 67.4412C8.22266 69.4334 10.4492 71.1326 13.3789 71.8552C15 72.2654 15.3125 72.4607 15.7422 73.281C15.9766 73.7302 15.9961 74.1209 15.8203 75.4881C15.2734 79.9607 16.8555 82.8709 20.4297 83.906C21.3477 84.1599 22.0508 84.2185 23.9648 84.1209C26.2109 84.0232 26.4062 84.0623 27.0117 84.4529C27.4414 84.7459 27.7148 85.1365 27.8906 85.742C29.0625 89.7263 30.6055 91.7576 33.0664 92.4802C35 93.0467 36.9922 92.7146 39.4531 91.3865C41.6992 90.156 42.3633 90.2732 43.8672 92.1873C45.6836 94.492 47.8711 95.781 50 95.7615C52.4414 95.7615 54.1211 94.6873 56.9531 91.3474C57.793 90.3513 58.6523 90.3513 60.6836 91.406C64.3555 93.2615 67.0117 93.2029 69.1992 91.2107C70.4297 90.0974 71.2891 88.5545 71.8555 86.5232C72.1094 85.6443 72.4609 84.8826 72.7539 84.5896C73.2227 84.1209 73.3008 84.1013 76.4062 84.1013C79.4727 84.0818 79.6289 84.0623 80.7031 83.5349C83.418 82.2068 84.7461 79.1404 84.2188 75.4099C84.0234 74.0623 84.043 73.7107 84.2578 73.2615C84.668 72.4802 84.9023 72.3435 86.8945 71.6795C89.0039 70.9959 90.1172 70.3904 91.1719 69.3162C92.2461 68.242 92.6367 67.324 92.7344 65.7029C92.832 64.0037 92.4609 62.617 91.3867 60.5467C90.8789 59.5701 90.625 58.8084 90.625 58.3006C90.625 57.617 90.7422 57.4412 91.6406 56.6404C95.3906 53.3982 96.4844 51.1326 95.6055 48.3982C95.1953 47.031 93.6719 45.0193 92.2852 43.9451C91.6797 43.4763 91.0547 42.9099 90.8984 42.6951C90.4102 41.992 90.5664 40.9568 91.3867 39.4138C91.8164 38.6326 92.2852 37.5193 92.4609 36.9334C92.8125 35.7224 92.8711 33.8279 92.5781 32.8318C92.0898 31.1326 90.2734 29.5115 87.832 28.6131C87.0508 28.3201 86.0352 27.949 85.5469 27.7537C84.9805 27.5388 84.5703 27.2263 84.3164 26.8162C83.9844 26.2498 83.9844 26.0545 84.1797 24.6677C85.0781 18.7302 81.4648 14.9998 75.5664 15.8006C74.3164 15.9763 73.8672 15.9568 73.3789 15.742C72.5391 15.3904 72.3828 15.1756 71.875 13.4763C71.0547 10.7029 69.6289 8.65211 67.8711 7.77321C66.8945 7.2654 65.0586 7.10915 63.6328 7.40211C63.0273 7.53883 61.7578 8.02711 60.8203 8.49586C58.6914 9.57008 57.832 9.64821 57.0703 8.80836C56.7773 8.49586 56.2109 7.81227 55.8008 7.2654C54.1211 5.0193 51.0547 3.73024 48.7109 4.27711ZM51.0547 8.61305C51.3086 8.73024 51.9922 9.41383 52.5586 10.0974C54.375 12.3435 56.2695 13.4959 58.1055 13.4959C59.4727 13.4959 60.4688 13.2224 62.7148 12.1873C64.9023 11.1912 65.7227 11.1131 66.5625 11.7966C66.9727 12.1482 67.1875 12.5779 67.3633 13.4177C68.0273 16.4451 69.9414 18.906 72.1875 19.6482C73.1445 19.9412 73.8281 19.9998 76.1523 19.9607C79.3164 19.9216 79.7461 20.0388 80.0391 21.1326C80.1172 21.4841 80.1172 22.2849 80.0195 22.949C79.8047 24.4334 79.9609 26.7966 80.332 27.8904C81.0742 30.0193 82.5586 31.2302 85.8008 32.3435C87.2656 32.8318 88.0273 33.2029 88.2812 33.5545C88.8867 34.3162 88.7891 35.3123 87.9102 36.9529C85.5664 41.3084 86.1719 44.4138 89.9414 47.4802C90.8398 48.2029 91.2891 48.7302 91.5039 49.3162C91.9531 50.4881 91.6406 51.1131 89.9414 52.4021C86.1523 55.2927 85.5078 58.574 87.9102 63.0467C89.082 65.2537 88.8672 66.406 87.1289 67.1677C86.6016 67.3826 86.0352 67.5779 85.8984 67.5779C85.332 67.5974 82.9297 68.7693 82.1289 69.4334C80.8398 70.4685 80.0977 72.1482 79.9609 74.2185C79.9023 75.1365 79.9219 76.406 80.0195 77.0506C80.2344 78.4763 80.0195 79.3943 79.4336 79.7263C79.1406 79.9021 78.0469 79.9802 75.9766 79.9998C73.3008 79.9998 72.8125 80.0584 71.8359 80.449C69.7461 81.2693 68.1836 83.3396 67.4609 86.2498C67.0508 87.8904 66.3672 88.6717 65.3906 88.6717C65.0195 88.6717 63.7891 88.2615 62.5781 87.7146C59.8828 86.5037 58.5742 86.2302 57.1289 86.5232C55.7617 86.7967 54.1602 87.9685 52.6367 89.7654C51.3867 91.2693 50.9375 91.5818 50.1367 91.6013C49.2188 91.6013 48.3984 91.074 47.3633 89.8045C46.1523 88.3201 44.4727 87.0506 43.2812 86.7185C42.7344 86.5623 41.8164 86.5037 40.918 86.5623C39.668 86.6404 39.1602 86.7967 37.3828 87.656C36.25 88.2224 35.0781 88.6717 34.7656 88.6717C33.8672 88.6717 33.1055 87.8513 32.5195 86.2693C31.1719 82.656 30.332 81.406 28.7695 80.6052C27.6953 80.0388 25.9766 79.824 23.6914 79.9607C21.9141 80.0779 21.4062 80.0584 20.918 79.8045C20.6055 79.6287 20.2734 79.3748 20.1758 79.2576C20.0977 79.1209 20.0195 77.6365 20.0195 75.9763C20 73.3787 19.9414 72.8123 19.5898 71.9529C18.75 69.8045 17.1875 68.5154 14.4141 67.656C12.2461 66.9724 11.9336 66.7967 11.6016 66.1717C11.1719 65.3318 11.2695 64.5701 12.0117 63.2224C13.4375 60.6248 13.8281 58.3006 13.1836 56.4256C12.7539 55.2341 11.5039 53.6716 10.0391 52.4802C8.51562 51.2302 7.96875 50.1365 8.41797 49.2185C8.57422 48.906 9.29688 48.1443 10.0586 47.5193C13.8867 44.3162 14.4531 41.367 12.0898 36.9529C11.2305 35.3513 11.1523 34.5701 11.7188 33.6521C12.0117 33.1443 12.3242 32.949 13.2227 32.7146C16.0156 31.9334 17.7148 30.9568 18.75 29.5506C19.8242 28.0857 20 27.3631 20 23.9646L20.0195 20.8591L20.5664 20.4099C21.0742 19.9607 21.1914 19.9412 24.082 19.9802C26.6211 20.0193 27.207 19.9607 28.0859 19.6287C30.1172 18.8865 31.1719 17.5193 32.3438 14.0818C33.3594 11.1326 34.3555 10.7029 36.9531 12.0896C38.9258 13.1638 40.3906 13.5545 41.9727 13.4373C43.9648 13.281 45.2734 12.4802 47.3438 10.156C47.9688 9.4529 48.6719 8.78883 48.8867 8.65211C49.4336 8.33961 50.4297 8.33961 51.0547 8.61305Z" fill="#1D56EB"/>
<path d="M45.5078 21.1912C39.1211 22.2654 33.7109 25.0583 29.2383 29.6091C23.8086 35.1365 20.8984 42.2263 20.8984 49.9998C20.8984 63.7888 30.3906 75.5271 44.0039 78.5349C46.8164 79.1599 51.7773 79.2576 54.7852 78.7498C60.8984 77.6951 66.2891 74.9021 70.625 70.5076C74.6875 66.406 77.2656 61.6599 78.5742 55.8982C78.9258 54.2966 78.9844 53.3982 78.9844 49.9998C78.9844 46.6013 78.9258 45.7029 78.5742 44.1013C77.9492 41.3865 77.2852 39.4529 76.0547 37.0115C71.9531 28.7302 64.0234 22.8318 54.9219 21.2693C52.3242 20.8396 47.8516 20.8005 45.5078 21.1912ZM55.2734 25.5662C60.1367 26.6794 64.043 28.8474 67.5977 32.4021C71.2305 36.0154 73.457 40.0974 74.5312 45.1169C75.0391 47.4412 75.0391 52.5583 74.5312 54.8826C73.457 59.9021 71.2305 63.9841 67.5977 67.5974C63.9844 71.2302 59.9023 73.4373 54.8828 74.531C52.4219 75.0583 47.2266 75.0193 44.8047 74.4529C39.7461 73.2615 35.9766 71.1912 32.4023 67.5974C28.7695 63.9841 26.543 59.9021 25.4687 54.8826C24.9609 52.5583 24.9609 47.4412 25.4687 45.1169C26.5625 40.0583 28.7305 36.074 32.4023 32.4021C35.2734 29.531 38.0078 27.7732 41.582 26.4841C43.0664 25.9568 45.7812 25.2927 47.168 25.1365C48.8672 24.9412 53.6133 25.1951 55.2734 25.5662Z" fill="#1D56EB"/>
<path d="M53.7686 47.5L45.8975 55.3516L42.2452 51.7188C39.5108 49.0234 38.4171 48.0664 37.9483 47.9688C36.5616 47.6562 35.1553 49.0625 35.4678 50.4492C35.5655 50.918 36.6593 52.1484 39.921 55.4297C42.2843 57.832 44.4718 59.9219 44.7647 60.0781C45.0577 60.2344 45.6241 60.3516 46.0343 60.3516C46.7374 60.3516 47.0694 60.0391 55.4288 51.6992C60.5655 46.582 64.2178 42.793 64.3936 42.4219C64.96 41.0938 63.9444 39.6484 62.421 39.6484C61.6397 39.6484 61.5616 39.7266 53.7686 47.5Z" fill="#1D56EB"/>
</svg>
