<svg width="100" height="100" viewBox="0 0 100 100" fill="none" xmlns="http://www.w3.org/2000/svg">
<path d="M36.31 0.292969C35.4506 0.761719 35.3139 1.40625 35.392 4.98047L35.4506 8.24219L35.9975 8.71094C36.3686 9.02344 36.7787 9.17969 37.3061 9.17969C37.8334 9.17969 38.2436 9.02344 38.6147 8.71094L39.1615 8.24219L39.2201 4.98047C39.2983 1.36719 39.1615 0.742188 38.2631 0.292969C37.5795 -0.078125 36.974 -0.0585938 36.31 0.292969Z" fill="#1D56EB"/>
<path d="M9.16073 7.20703C8.55526 7.83203 8.41854 8.67188 8.8287 9.43359C9.12167 10 12.6373 14.2578 13.1646 14.6875C13.399 14.8828 13.9068 15.0391 14.317 15.0391C15.7428 15.0391 16.6607 13.4961 15.9771 12.2461C15.5865 11.5039 11.8951 7.14844 11.4459 6.89453C10.7037 6.46484 9.78573 6.58203 9.16073 7.20703Z" fill="#1D56EB"/>
<path d="M64.6303 7.01172C63.9076 7.57813 60.2748 12.0703 60.0991 12.6172C59.7084 13.75 60.6264 15.0391 61.8178 15.0391C62.2084 15.0391 62.6772 14.9609 62.8725 14.8438C63.0678 14.7461 64.2201 13.4766 65.4116 12.0117C67.3647 9.60938 67.5795 9.27734 67.5795 8.57422C67.5795 7.01172 65.8022 6.07422 64.6303 7.01172Z" fill="#1D56EB"/>
<path d="M33.4967 13.4961C31.4263 13.7109 28.4576 14.3555 26.1724 15.0781C23.8287 15.8203 19.6295 17.8125 17.6373 19.1406C14.0045 21.5625 9.92244 25.3906 9.66853 26.6016C9.39509 27.8125 10.3717 28.9062 11.7193 28.9062C12.2076 28.9062 12.6568 28.5547 14.4342 26.7969C17.5982 23.6719 20.8013 21.4844 24.6295 19.8438C40.3131 13.125 58.3795 19.7461 66.0553 35.0391C69.5904 42.0703 70.3912 50.1562 68.3209 57.8711C67.8717 59.5898 67.8326 59.6289 65.9381 59.8633C64.4342 60.0391 61.231 60.957 59.3951 61.6992L57.9498 62.3047H51.2896C47.6373 62.3047 43.9654 62.4023 43.1646 62.5C37.2467 63.2617 33.692 69.6289 36.231 74.9023C36.4849 75.4297 36.6607 75.8984 36.6021 75.957C36.5631 75.9961 30.9576 74.4531 24.1607 72.5195L11.817 68.9844L10.6842 67.3633C6.15291 60.8594 4.27791 52.3242 5.5865 44.1602C5.97713 41.6992 5.48884 40.8203 3.75056 40.8203C2.22713 40.8203 1.73884 42.0312 1.34822 46.7773C0.977125 51.4062 1.58259 56.1328 3.12556 60.8008C3.96541 63.3203 5.44978 66.4844 6.66072 68.3594C7.09041 69.0234 7.42244 69.5898 7.38338 69.6094C7.34431 69.6289 6.85603 69.9414 6.28963 70.293C4.27791 71.5625 2.93025 73.6523 2.52009 76.1328C1.97322 79.3945 3.86775 83.1641 6.81697 84.6484C8.04744 85.2734 37.0709 95.332 39.2388 95.8984C41.9342 96.582 44.4732 96.875 47.7935 96.875C50.7232 96.875 51.9342 96.7383 64.3365 95.0195C74.9029 93.5547 78.1842 93.1641 79.981 93.1641H82.2271V95.8008C82.2271 97.4219 82.3248 98.6133 82.4615 98.9258C82.9303 99.9609 83.1842 100 90.606 100H97.4615L98.0865 99.4336L98.731 98.8672L98.7896 82.6758C98.8287 66.7773 98.8287 66.4844 98.4381 65.8594C98.2232 65.5078 97.8131 65.1367 97.5396 65.0391C97.2662 64.9219 94.3951 64.8438 90.8013 64.8438H84.5709L82.0709 63.4766C79.1021 61.8555 76.1724 60.6641 73.7506 60.1172C72.774 59.8828 71.9537 59.6875 71.9342 59.6875C71.9146 59.668 72.0709 59.0039 72.2662 58.2031C74.356 50.0781 73.4381 41.2305 69.7271 33.6719C63.0279 19.9609 48.5943 11.9141 33.4967 13.4961ZM71.6803 63.6719C73.8287 64.0234 76.1529 64.8438 79.1998 66.4062L82.1295 67.8711L82.1881 78.5742L82.2271 89.2578H79.8443C77.9107 89.2578 75.1373 89.5898 64.7662 91.0352C53.7701 92.5781 51.5826 92.832 48.5943 92.9102C45.0592 93.0078 42.8912 92.793 40.0006 92.0703C37.7154 91.4844 8.57478 81.2695 8.06697 80.8594C7.28572 80.2539 6.66072 79.2383 6.42634 78.1641C5.93806 76.0547 7.32478 73.75 9.51228 73.125C10.1373 72.9492 10.8404 72.8711 11.231 72.9297C11.5826 73.0078 17.2467 74.5898 23.8092 76.4648L35.7232 79.8828H47.2662H58.8287L59.3951 79.3164C60.0006 78.7109 60.1568 77.6953 59.7662 76.9336C59.2584 76.0156 58.9068 75.9766 50.9381 75.9766C46.3873 75.9766 43.1646 75.8984 42.7349 75.7812C41.6412 75.4688 40.4107 74.4336 39.8638 73.3398C39.4732 72.5781 39.356 72.0898 39.356 71.0938C39.3756 69.5898 39.8443 68.5547 40.9381 67.5781C42.3834 66.3086 42.2662 66.3281 51.0748 66.1914L59.0826 66.0938L61.524 65.1562C65.4498 63.6523 68.5943 63.2031 71.6803 63.6719ZM94.9224 82.4219V96.0938H90.5279H86.1334V82.4219V68.75H90.5279H94.9224V82.4219Z" fill="#1D56EB"/>
<path d="M18.7305 32.0117C16.6211 32.6953 14.9414 34.3164 14.1406 36.4258C13.8086 37.3242 13.7695 38.0078 13.7695 44.5313V51.6602L14.4141 52.9688C15.1367 54.4336 16.4648 55.7617 17.8906 56.4258C19.1992 57.0508 21.8555 57.3438 23.9258 57.0898C27.7344 56.6211 30.1172 54.3945 30.6836 50.7813C30.8203 49.8633 30.8594 47.2266 30.8203 43.3789C30.7422 37.7344 30.7227 37.3438 30.293 36.2891C29.6875 34.7266 28.2227 33.1836 26.6016 32.3828C25.3516 31.7578 25.2148 31.7383 22.5586 31.6992C20.3125 31.6406 19.6289 31.6992 18.7305 32.0117ZM25.0781 35.9961C26.0156 36.5234 26.543 37.207 26.7578 38.2031C27.0312 39.3164 26.9922 49.6484 26.7383 50.6836C26.25 52.6172 24.4727 53.4766 21.4453 53.2617C19.2969 53.0859 18.4961 52.6172 17.8711 51.1133C17.6367 50.5273 17.5781 49.3555 17.5781 44.3555C17.5781 40.5469 17.6562 38.1055 17.793 37.7539C18.0664 37.0313 18.9062 36.1523 19.6289 35.8203C20 35.6641 20.9766 35.5664 22.2656 35.5664C24.043 35.5469 24.4141 35.6055 25.0781 35.9961Z" fill="#1D56EB"/>
<path d="M39.1802 32.4219C36.6998 33.3984 35.1959 36.1524 35.7427 38.75C36.4459 42.1875 40.3326 44.1602 43.4771 42.6953C47.1881 40.957 47.9302 36.2305 44.9029 33.5156C43.2818 32.0508 41.1529 31.6602 39.1802 32.4219ZM42.3052 36.4063C43.4576 37.3828 42.7349 39.2578 41.2115 39.2578C39.6881 39.2578 38.9654 37.3828 40.1177 36.4063C40.4107 36.1524 40.899 35.9375 41.2115 35.9375C41.524 35.9375 42.0123 36.1524 42.3052 36.4063Z" fill="#1D56EB"/>
<path d="M5.82168 32.5391C4.14199 33.4375 4.84512 36.1328 6.73965 36.1328C8.67324 36.1328 9.3373 33.3984 7.61855 32.5195C6.91543 32.1484 6.50527 32.168 5.82168 32.5391Z" fill="#1D56EB"/>
<path d="M47.5193 43.3984C41.699 49.2188 36.8357 54.2188 36.699 54.5312C36.2107 55.7422 37.1286 57.0312 38.5154 57.0312H39.3552L50.1755 46.2109L60.9958 35.3906L60.8786 34.5312C60.7224 33.418 60.0388 32.8125 58.9255 32.8125H58.1052L47.5193 43.3984Z" fill="#1D56EB"/>
<path d="M55.1376 47.0899C50.7235 47.9492 49.0829 53.3594 52.286 56.5625C54.8446 59.1406 59.2587 58.4766 61.036 55.2539C61.5634 54.3164 61.622 54.0235 61.622 52.5391C61.622 51.211 61.5243 50.7227 61.1923 50.0977C60.0204 47.9102 57.4618 46.6406 55.1376 47.0899ZM57.4228 51.5235C57.6376 51.7774 57.8134 52.2656 57.8134 52.5781C57.8134 53.3203 56.8759 54.2969 56.1532 54.2969C55.4306 54.2969 54.4931 53.3203 54.4931 52.5781C54.4931 51.0156 56.4657 50.293 57.4228 51.5235Z" fill="#1D56EB"/>
</svg>
