<svg width="26.000000" height="16.000000" viewBox="0 0 26 16" fill="none"
	xmlns="http://www.w3.org/2000/svg" xmlns:xlink="http://www.w3.org/1999/xlink">
	<path id="Vector"
		d="M14.18 3.88C14.18 3.88 14.19 3.89 14.19 3.89C14.19 4.85 14.18 5.81 14.19 6.77C14.19 7.11 14.17 7.51 14.51 7.69C14.86 7.88 15.16 7.61 15.41 7.38C16.39 6.53 17.11 5.44 17.73 4.3C18.34 3.2 18.89 2.05 19.43 0.9C19.7 0.31 20.1 0 20.73 0C21.66 0 22.6 0 23.54 0C23.62 0 23.69 0 23.77 0C24.33 0.07 24.58 0.43 24.43 0.99C24.31 1.41 24.16 1.83 23.97 2.21C23.05 4.11 21.9 5.86 20.74 7.6C20.14 8.5 20.17 8.69 20.88 9.49C22.01 10.78 23.13 12.08 24.21 13.41C24.53 13.8 24.76 14.31 24.93 14.81C25.15 15.44 24.83 15.92 24.2 15.95C23.1 15.99 21.99 15.99 20.88 15.95C20.44 15.94 20.09 15.63 19.79 15.3C19.18 14.64 18.62 13.94 17.99 13.33C17.28 12.65 16.52 12.03 15.74 11.44C15.51 11.27 15.18 11.22 14.89 11.19C14.45 11.16 14.28 11.32 14.24 11.78C14.19 12.17 14.18 12.56 14.18 12.95C14.17 13.6 14.19 14.24 14.19 14.88C14.18 15.47 14.01 15.7 13.47 15.84C12.37 16.11 11.27 16 10.19 15.71C7.61 15.01 5.59 13.42 3.97 11.24C2.15 8.78 0.63 6.13 -0.4 3.2C-0.64 2.53 -0.81 1.84 -0.96 1.15C-1.12 0.39 -0.81 0.01 -0.07 0C0.87 0 1.82 0.01 2.77 0C3.38 -0.02 3.77 0.27 3.99 0.86C4.39 1.89 4.77 2.93 5.21 3.95C5.82 5.35 6.55 6.7 7.48 7.9C7.74 8.23 8.04 8.55 8.37 8.81C8.87 9.2 9.28 9 9.29 8.37C9.31 6.64 9.31 4.9 9.28 3.17C9.27 2.59 9.04 2.06 8.7 1.6C8.6 1.47 8.51 1.34 8.41 1.21C8.22 0.97 8.13 0.71 8.27 0.42C8.4 0.12 8.65 0 8.96 0C10.43 0 11.91 0 13.39 0C13.9 0 14.15 0.24 14.16 0.78C14.18 1.81 14.17 2.84 14.17 3.87C14.17 3.88 14.17 3.88 14.18 3.88Z"
		fill="#F8F8F9" fill-opacity="0.750000" fill-rule="evenodd" />
</svg>