<svg width="23.000000" height="22.000000" viewBox="0 0 23 22" fill="none"
	xmlns="http://www.w3.org/2000/svg" xmlns:xlink="http://www.w3.org/1999/xlink">
	<path id="Vector"
		d="M12.46 8.33C12.52 8.27 12.56 8.25 12.59 8.21C13.14 7.65 13.8 7.25 14.54 7C15.01 6.84 15.5 6.75 16 6.73C16.68 6.7 17.33 6.73 17.99 6.87C19.08 7.09 20.02 7.58 20.7 8.47C21.14 9.03 21.42 9.66 21.61 10.34C21.9 11.37 21.99 12.43 21.99 13.49C22 16.17 22 18.87 22 21.56C22 21.85 21.86 21.99 21.54 21.99C20.13 21.99 18.74 21.99 17.33 21.99C17.28 21.99 17.23 21.98 17.18 21.97C17.01 21.94 16.9 21.82 16.88 21.65C16.87 21.59 16.88 21.54 16.88 21.48C16.88 19.03 16.88 16.57 16.87 14.13C16.87 13.6 16.82 13.06 16.68 12.54C16.47 11.8 15.95 11.38 15.18 11.32C14.74 11.29 14.31 11.32 13.9 11.49C13.36 11.71 13.07 12.13 12.89 12.66C12.75 13.09 12.68 13.52 12.68 13.98C12.66 16.36 12.66 18.74 12.65 21.13C12.65 21.26 12.65 21.4 12.65 21.54C12.65 21.87 12.52 22 12.19 22C10.79 22 9.4 22 8 22C7.67 22 7.53 21.86 7.53 21.54C7.53 16.86 7.53 12.2 7.53 7.53C7.53 7.19 7.66 7.07 7.99 7.07C9.33 7.07 10.67 7.07 12.01 7.07C12.09 7.07 12.18 7.07 12.24 7.1C12.41 7.16 12.47 7.3 12.47 7.47C12.46 7.73 12.46 8.01 12.46 8.33Z"
		fill="#F8F8F9" fill-opacity="0.750000" fill-rule="evenodd" />
	<path id="Vector"
		d="M0.34 14.52C0.34 12.2 0.34 9.87 0.34 7.54C0.34 7.46 0.35 7.38 0.37 7.3C0.42 7.16 0.51 7.08 0.66 7.07C0.71 7.06 0.76 7.06 0.82 7.06C2.22 7.06 3.61 7.06 5.01 7.06C5.06 7.06 5.13 7.06 5.19 7.07C5.32 7.09 5.44 7.2 5.46 7.33C5.48 7.4 5.48 7.47 5.48 7.54C5.48 12.19 5.48 16.85 5.48 21.5C5.48 21.6 5.47 21.7 5.43 21.79C5.37 21.94 5.22 21.99 5.06 21.99C4.82 21.99 4.59 21.99 4.36 21.99C3.2 21.99 2.03 21.99 0.87 21.99C0.81 21.99 0.74 21.99 0.68 21.98C0.48 21.95 0.37 21.83 0.36 21.62C0.35 21.57 0.36 21.53 0.36 21.48C0.34 19.16 0.34 16.84 0.34 14.52Z"
		fill="#F8F8F9" fill-opacity="0.750000" fill-rule="evenodd" />
	<path id="Vector"
		d="M2.91 0C4.55 0.01 5.83 1.34 5.82 2.93C5.8 4.56 4.47 5.85 2.86 5.82C1.25 5.79 -0.03 4.48 0 2.87C0.02 1.28 1.35 -0.03 2.91 0Z"
		fill="#F8F8F9" fill-opacity="0.750000" fill-rule="evenodd" />
</svg>