<svg width="925.618408" height="491.000000" viewBox="0 0 925.618 491" fill="none" xmlns="http://www.w3.org/2000/svg" xmlns:xlink="http://www.w3.org/1999/xlink">
	<desc>
			Created with Pixso.
	</desc>
	<defs/>
	<path id="Заявка" d="M269.344 485.24C272.725 485.24 275.238 483.119 275.238 480.26C275.238 478.045 273.926 476.434 271.729 476.07L271.729 475.93C273.492 475.396 274.594 473.943 274.594 471.975C274.594 469.508 272.643 467.305 269.414 467.305C266.397 467.305 263.889 469.162 263.789 471.91L265.834 471.91C265.91 470.17 267.563 469.15 269.379 469.15C271.301 469.15 272.549 470.316 272.549 472.08C272.549 473.92 271.108 475.115 269.039 475.115L267.639 475.115L267.639 476.99L269.039 476.99C271.688 476.99 273.164 478.338 273.164 480.26C273.164 482.111 271.553 483.365 269.309 483.365C267.287 483.365 265.688 482.322 265.559 480.635L263.414 480.635C263.537 483.383 265.957 485.24 269.344 485.24ZM283.567 485.305C285.846 485.305 287.042 484.08 287.452 483.225L287.551 483.225L287.551 485L289.567 485L289.567 476.375C289.567 472.215 286.397 471.74 284.721 471.74C282.747 471.74 280.497 472.42 279.471 474.805L281.381 475.49C281.827 474.535 282.875 473.51 284.792 473.51C286.643 473.51 287.551 474.494 287.551 476.17L287.551 476.24C287.551 477.213 286.567 477.125 284.176 477.43C281.75 477.746 279.096 478.285 279.096 481.285C279.096 483.84 281.077 485.305 283.567 485.305ZM283.872 483.5C282.272 483.5 281.112 482.785 281.112 481.385C281.112 479.85 282.506 479.375 284.077 479.17C284.926 479.07 287.211 478.83 287.551 478.42L287.551 480.26C287.551 481.9 286.256 483.5 283.872 483.5ZM302.081 485L303.991 485L303.991 471.91L298.606 471.91C295.782 471.91 294.071 473.381 294.071 475.795C294.071 477.594 294.973 478.871 296.549 479.41L293.356 485L295.536 485L298.571 479.68L302.081 479.68L302.081 485ZM302.081 477.805L298.366 477.805C296.942 477.805 296.081 477.049 296.081 475.795C296.081 474.523 297.036 473.75 298.606 473.75L302.081 473.75L302.081 477.805ZM308.631 485L314.801 485C317.462 485 319.067 483.5 319.067 481.49C319.067 479.434 317.503 478.326 316.067 478.115C317.538 477.805 318.587 476.979 318.587 475.385C318.587 473.299 316.799 471.91 313.987 471.91L308.631 471.91L308.631 485ZM310.542 483.16L310.542 479.135L314.801 479.135C316.184 479.135 317.016 479.961 317.016 481.32C317.016 482.463 316.184 483.16 314.801 483.16L310.542 483.16ZM310.542 477.4L310.542 473.75L313.987 473.75C315.598 473.75 316.577 474.424 316.577 475.525C316.577 476.691 315.598 477.4 313.987 477.4L310.542 477.4ZM323.057 485L325.067 485L325.067 479.475L326.878 479.475L331.173 485L333.762 485L328.413 478.215L333.692 471.91L331.102 471.91L326.397 477.6L325.067 477.6L325.067 471.91L323.057 471.91L323.057 485ZM340.759 485.305C343.038 485.305 344.234 484.08 344.644 483.225L344.744 483.225L344.744 485L346.759 485L346.759 476.375C346.759 472.215 343.589 471.74 341.913 471.74C339.939 471.74 337.689 472.42 336.663 474.805L338.574 475.49C339.019 474.535 340.068 473.51 341.984 473.51C343.835 473.51 344.744 474.494 344.744 476.17L344.744 476.24C344.744 477.213 343.759 477.125 341.369 477.43C338.943 477.746 336.288 478.285 336.288 481.285C336.288 483.84 338.269 485.305 340.759 485.305ZM341.064 483.5C339.464 483.5 338.304 482.785 338.304 481.385C338.304 479.85 339.699 479.375 341.269 479.17C342.119 479.07 344.404 478.83 344.744 478.42L344.744 480.26C344.744 481.9 343.449 483.5 341.064 483.5Z" fill="#F8F8F9" fill-opacity="1.000000" fill-rule="evenodd"/>
	<path id="Обучение" d="M567.899 424.275C567.899 418.75 564.659 415.305 560.194 415.305C555.729 415.305 552.489 418.75 552.489 424.275C552.489 429.795 555.729 433.24 560.194 433.24C564.659 433.24 567.899 429.795 567.899 424.275ZM565.854 424.275C565.854 428.805 563.364 431.26 560.194 431.26C557.024 431.26 554.534 428.805 554.534 424.275C554.534 419.74 557.024 417.285 560.194 417.285C563.364 417.285 565.854 419.74 565.854 424.275ZM581.847 415C581.208 415.539 580.253 415.539 578.917 415.527C578.484 415.527 578.003 415.527 577.488 415.545C573.497 415.65 571.517 418.68 571.517 424.51L571.517 425.91C571.517 430.75 573.872 433.275 577.382 433.275C580.886 433.275 583.212 430.732 583.212 426.625C583.212 422.5 580.851 420.32 577.792 420.32C575.993 420.32 574.318 421.07 573.427 422.705L573.257 422.705C573.533 419.33 574.792 417.525 577.517 417.42C579.943 417.32 581.677 417.385 582.872 416.225L581.847 415ZM577.382 431.465C574.997 431.465 573.533 429.555 573.533 426.625C573.574 423.76 575.015 422.125 577.347 422.125C579.743 422.125 581.202 423.76 581.202 426.625C581.202 429.572 579.755 431.465 577.382 431.465ZM588.535 437.91C590.351 437.91 591.629 436.943 592.39 434.91L597.945 419.91L595.765 419.91L592.15 430.34L592.015 430.34L588.4 419.91L586.22 419.91L591.06 433.07L590.685 434.09C589.953 436.088 589.05 436.275 587.58 435.9L587.07 437.67C587.275 437.775 587.855 437.91 588.535 437.91ZM611.244 419.91L609.234 419.91L609.234 426.549C608.262 426.83 607.266 427 606.065 427C604.43 427 603.164 426.08 603.164 424.07L603.164 419.875L601.154 419.875L601.154 424.07C601.154 427.275 603.1 428.875 606.065 428.875C607.301 428.875 608.291 428.711 609.234 428.43L609.234 433L611.244 433L611.244 419.91ZM621.377 433.275C624.037 433.275 625.977 431.945 626.592 429.965L624.647 429.42C624.137 430.785 622.953 431.465 621.377 431.465C619.016 431.465 617.387 429.941 617.293 427.135L626.797 427.135L626.797 426.285C626.797 421.41 623.897 419.74 621.172 419.74C617.627 419.74 615.272 422.535 615.272 426.555C615.272 430.58 617.592 433.275 621.377 433.275ZM617.293 425.4C617.428 423.361 618.87 421.545 621.172 421.545C623.352 421.545 624.752 423.18 624.752 425.4L617.293 425.4ZM632.834 419.91L630.824 419.91L630.824 433L632.834 433L632.834 427.41L639.11 427.41L639.11 433L641.119 433L641.119 419.91L639.11 419.91L639.11 425.535L632.834 425.535L632.834 419.91ZM647.771 430.035L647.771 419.91L645.762 419.91L645.762 433L648.117 433L654.387 422.875L654.387 433L656.396 433L656.396 419.91L654.082 419.91L647.771 430.035ZM666.53 433.275C669.19 433.275 671.13 431.945 671.745 429.965L669.8 429.42C669.29 430.785 668.106 431.465 666.53 431.465C664.169 431.465 662.54 429.941 662.446 427.135L671.95 427.135L671.95 426.285C671.95 421.41 669.05 419.74 666.325 419.74C662.78 419.74 660.425 422.535 660.425 426.555C660.425 430.58 662.745 433.275 666.53 433.275ZM662.446 425.4C662.581 423.361 664.022 421.545 666.325 421.545C668.505 421.545 669.905 423.18 669.905 425.4L662.446 425.4Z" fill="#F8F8F9" fill-opacity="1.000000" fill-rule="evenodd"/>
	<path id="Vector 2" d="M0.618408 466.5C119.533 427.838 305.118 367.5 305.118 367.5L391.618 403L611.618 316.5L687.118 346L815.618 68.5" stroke="#1D56EB" stroke-opacity="1.000000" stroke-width="4.000000"/>
	<g opacity="0.100000">
		<path id="Vector 3" d="M0.618408 471L305.118 372L391.618 407.5L611.618 321L687.118 350.5L815.618 73" stroke="#1D56EB" stroke-opacity="1.000000" stroke-width="4.000000"/>
	</g>
	<g opacity="0.150000">
		<path id="Ellipse 15" d="M655.959 264.154C643.963 254.075 628.492 248 611.618 248C595.948 248.006 580.192 253.296 567.276 264.156C555.266 274.22 546.597 288.4 543.682 305.022C540.951 320.451 543.426 336.887 551.877 351.493C559.703 365.068 572.163 376.067 588.026 381.824C602.746 387.193 619.361 387.61 635.214 381.823C649.941 376.474 662.937 366.113 671.361 351.491C679.204 337.926 682.5 321.636 679.554 305.02C676.843 289.587 668.897 274.989 655.959 264.154ZM584.38 284.537C591.749 278.345 601.253 274.613 611.618 274.613C621.245 274.617 630.923 277.867 638.858 284.538C646.236 290.72 651.561 299.431 653.351 309.642C655.029 319.12 653.509 329.216 648.317 338.189C643.51 346.528 635.856 353.285 626.111 356.821C617.069 360.119 606.862 360.375 597.124 356.821C588.077 353.535 580.093 347.17 574.919 338.188C570.101 329.855 568.076 319.848 569.886 309.641C571.551 300.16 576.432 291.193 584.38 284.537Z" fill="#1D56EB" fill-opacity="1.000000" fill-rule="evenodd"/>
	</g>
	<g opacity="0.150000">
		<path id="Ellipse 13" d="M348.959 316.154C336.963 306.075 321.493 300 304.618 300C288.948 300.006 273.192 305.296 260.275 316.156C248.266 326.22 239.597 340.4 236.682 357.022C233.951 372.451 236.426 388.887 244.877 403.493C252.703 417.068 265.163 428.067 281.026 433.824C295.746 439.193 312.361 439.61 328.214 433.823C342.941 428.474 355.937 418.113 364.361 403.491C372.204 389.926 375.5 373.636 372.554 357.02C369.843 341.587 361.897 326.989 348.959 316.154ZM277.38 336.537C284.749 330.345 294.253 326.613 304.618 326.613C314.245 326.617 323.923 329.867 331.858 336.538C339.236 342.72 344.561 351.431 346.351 361.642C348.029 371.12 346.509 381.216 341.317 390.189C336.51 398.528 328.856 405.285 319.111 408.821C310.069 412.119 299.862 412.375 290.124 408.821C281.077 405.535 273.093 399.17 267.919 390.188C263.101 381.855 261.076 371.848 262.886 361.641C264.551 352.16 269.432 343.193 277.38 336.537Z" fill="#1D56EB" fill-opacity="1.000000" fill-rule="evenodd"/>
	</g>
	<g opacity="0.150000">
		<path id="Ellipse 17" d="M859.959 16.1543C847.963 6.07471 832.493 0 815.618 0C799.948 0.00585938 784.192 5.29639 771.276 16.1562C759.266 26.2202 750.597 40.4004 747.682 57.0225C744.951 72.4512 747.426 88.8867 755.877 103.493C763.703 117.068 776.163 128.067 792.026 133.824C806.746 139.193 823.361 139.61 839.214 133.823C853.941 128.474 866.937 118.113 875.361 103.491C883.204 89.9263 886.5 73.6362 883.554 57.0195C880.843 41.5874 872.897 26.9893 859.959 16.1543ZM788.38 36.5371C795.749 30.3452 805.253 26.6133 815.618 26.6133C825.245 26.6172 834.923 29.8672 842.858 36.5381C850.236 42.7202 855.561 51.4312 857.351 61.6421C859.029 71.1201 857.509 81.2163 852.317 90.189C847.51 98.5278 839.856 105.285 830.111 108.821C821.069 112.119 810.862 112.375 801.124 108.821C792.077 105.535 784.093 99.1704 778.919 90.1875C774.101 81.855 772.076 71.8481 773.886 61.6406C775.551 52.1602 780.432 43.1929 788.38 36.5371Z" fill="#1D56EB" fill-opacity="1.000000" fill-rule="evenodd"/>
	</g>
	<g opacity="0.300000">
		<path id="Ellipse 18" d="M859.959 16.1543C847.963 6.07471 832.493 0 815.618 0C799.948 0.00585938 784.192 5.29639 771.276 16.1562C759.266 26.2202 750.597 40.4004 747.682 57.0225C744.951 72.4512 747.426 88.8867 755.877 103.493C763.703 117.068 776.163 128.067 792.026 133.824C806.746 139.193 823.361 139.61 839.214 133.823C853.941 128.474 866.937 118.113 875.361 103.491C883.204 89.9263 886.5 73.6362 883.554 57.0195C880.843 41.5874 872.897 26.9893 859.959 16.1543ZM788.38 36.5371C795.749 30.3452 805.253 26.6133 815.618 26.6133C825.245 26.6172 834.923 29.8672 842.858 36.5381C850.236 42.7202 855.561 51.4312 857.351 61.6421C859.029 71.1201 857.509 81.2163 852.317 90.189C847.51 98.5278 839.856 105.285 830.111 108.821C821.069 112.119 810.862 112.375 801.124 108.821C792.077 105.535 784.093 99.1704 778.919 90.1875C774.101 81.855 772.076 71.8481 773.886 61.6406C775.551 52.1602 780.432 43.1929 788.38 36.5371Z" fill="#1D56EB" fill-opacity="1.000000" fill-rule="evenodd"/>
	</g>
	<circle id="Ellipse 10" cx="304.618408" cy="369.000000" r="18.000000" fill="#1D56EB" fill-opacity="1.000000"/>
	<circle id="Ellipse 11" cx="611.618408" cy="317.000000" r="18.000000" fill="#1D56EB" fill-opacity="1.000000"/>
	<circle id="Ellipse 12" cx="815.618408" cy="69.000000" r="18.000000" fill="#1D56EB" fill-opacity="1.000000"/>
	<g opacity="0.300000">
		<path id="Ellipse 16" d="M611.618 248C630.122 248 646.939 255.305 659.337 267.186C672.711 279.972 679.801 296.88 680.536 314.035C681.35 332.521 674.775 349.635 663.438 362.532C651.239 376.444 634.651 384.255 617.543 385.727C599.11 387.334 581.729 381.501 568.356 370.729C553.932 359.14 545.416 342.903 543.192 325.877L569.584 322.454C571.047 333.726 576.826 343.393 585.043 350.007C593.89 357.144 604.75 360.127 615.259 359.219C626.585 358.253 636.491 352.895 643.452 344.97C650.963 336.438 654.41 325.716 653.955 315.178C653.477 303.821 648.55 293.693 640.931 286.398C632.73 278.528 622.166 274.623 611.618 274.613L611.618 248Z" fill="#1D56EB" fill-opacity="1.000000" fill-rule="evenodd"/>
	</g>
	<g opacity="0.200000">
		<path id="Ellipse 14" d="M304.618 300C314.779 300 324.431 302.203 333.122 306.156C342.372 310.358 350.253 316.351 356.53 323.544L336.508 341.077C332.396 336.381 327.472 332.812 322.128 330.395C316.442 327.82 310.483 326.604 304.618 326.613L304.618 300Z" fill="#1D56EB" fill-opacity="1.000000" fill-rule="evenodd"/>
	</g>
	<path id="1" d="M306.99 360.545L304.875 360.545L300.509 363.445L300.509 365.59L304.769 362.76L304.875 362.76L304.875 378L306.99 378L306.99 360.545Z" fill="#F8F8F9" fill-opacity="1.000000" fill-rule="evenodd"/>
	<path id="2" d="M606.662 325L617.677 325L617.677 323.125L609.562 323.125L609.562 322.99L613.482 318.795C616.482 315.584 617.367 314.084 617.367 312.15C617.367 309.455 615.187 307.305 612.117 307.305C609.058 307.305 606.732 309.385 606.732 312.455L608.742 312.455C608.742 310.469 610.031 309.15 612.052 309.15C613.945 309.15 615.392 310.305 615.392 312.15C615.392 313.756 614.443 314.951 612.427 317.16L606.662 323.465L606.662 325Z" fill="#F8F8F9" fill-opacity="1.000000" fill-rule="evenodd"/>
	<path id="3" d="M815.687 77.2402C819.068 77.2402 821.582 75.1191 821.582 72.2598C821.582 70.0449 820.269 68.4336 818.072 68.0703L818.072 67.9297C819.836 67.3965 820.937 65.9434 820.937 63.9746C820.937 61.5078 818.986 59.3047 815.757 59.3047C812.74 59.3047 810.232 61.1621 810.132 63.9102L812.177 63.9102C812.254 62.1699 813.906 61.1504 815.722 61.1504C817.644 61.1504 818.892 62.3164 818.892 64.0801C818.892 65.9199 817.451 67.1152 815.382 67.1152L813.982 67.1152L813.982 68.9902L815.382 68.9902C818.031 68.9902 819.507 70.3379 819.507 72.2598C819.507 74.1113 817.896 75.3652 815.652 75.3652C813.63 75.3652 812.031 74.3223 811.902 72.6348L809.757 72.6348C809.88 75.3828 812.3 77.2402 815.687 77.2402Z" fill="#F8F8F9" fill-opacity="1.000000" fill-rule="evenodd"/>
	<path id="Трудоустройство" d="M708.013 169.42L713.503 169.42L713.503 185L715.613 185L715.613 169.42L721.103 169.42L721.103 167.545L708.013 167.545L708.013 169.42ZM723.698 189.91L725.708 189.91L725.708 182.99L725.884 182.99C726.323 183.705 727.179 185.275 729.698 185.275C732.974 185.275 735.259 182.65 735.259 178.49C735.259 174.365 732.974 171.74 729.663 171.74C727.108 171.74 726.323 173.305 725.884 173.99L725.644 173.99L725.644 171.91L723.698 171.91L723.698 189.91ZM725.679 178.455C725.679 175.525 726.974 173.545 729.429 173.545C731.983 173.545 733.243 175.695 733.243 178.455C733.243 181.25 731.948 183.465 729.429 183.465C727.009 183.465 725.679 181.42 725.679 178.455ZM740.101 189.91C741.917 189.91 743.195 188.943 743.956 186.91L749.511 171.91L747.331 171.91L743.716 182.34L743.581 182.34L739.966 171.91L737.786 171.91L742.626 185.07L742.251 186.09C741.519 188.088 740.617 188.275 739.146 187.9L738.636 189.67C738.841 189.775 739.421 189.91 740.101 189.91ZM750.644 188.75L752.654 188.75L752.654 185L762.334 185L762.334 188.75L764.349 188.75L764.349 183.125L762.334 183.125L762.334 171.91L754.019 171.91L753.574 177.09C753.257 180.758 752.789 182.018 751.734 183.125L750.644 183.125L750.644 188.75ZM754.019 183.125C754.939 181.912 755.267 179.826 755.548 177.09L755.894 173.785L760.324 173.785L760.324 183.125L754.019 183.125ZM773.285 185.275C776.83 185.275 779.215 182.58 779.215 178.525C779.215 174.43 776.83 171.74 773.285 171.74C769.74 171.74 767.349 174.43 767.349 178.525C767.349 182.58 769.74 185.275 773.285 185.275ZM773.285 183.465C770.59 183.465 769.365 181.15 769.365 178.525C769.365 175.9 770.59 173.545 773.285 173.545C775.974 173.545 777.205 175.9 777.205 178.525C777.205 181.15 775.974 183.465 773.285 183.465ZM784.06 189.91C785.877 189.91 787.154 188.943 787.916 186.91L793.471 171.91L791.291 171.91L787.676 182.34L787.541 182.34L783.926 171.91L781.746 171.91L786.586 185.07L786.211 186.09C785.478 188.088 784.576 188.275 783.105 187.9L782.596 189.67C782.801 189.775 783.381 189.91 784.06 189.91ZM801.932 185.275C804.827 185.275 806.737 183.5 807.077 181.18L805.067 181.18C804.692 182.615 803.497 183.465 801.932 183.465C799.547 183.465 798.012 181.49 798.012 178.455C798.012 175.49 799.577 173.545 801.932 173.545C803.702 173.545 804.762 174.635 805.067 175.83L807.077 175.83C806.737 173.375 804.657 171.74 801.897 171.74C798.352 171.74 795.997 174.535 795.997 178.525C795.997 182.445 798.247 185.275 801.932 185.275ZM809.947 173.785L814.277 173.785L814.277 185L816.287 185L816.287 173.785L820.582 173.785L820.582 171.91L809.947 171.91L809.947 173.785ZM824.475 189.91L826.485 189.91L826.485 182.99L826.661 182.99C827.1 183.705 827.956 185.275 830.475 185.275C833.75 185.275 836.036 182.65 836.036 178.49C836.036 174.365 833.75 171.74 830.44 171.74C827.885 171.74 827.1 173.305 826.661 173.99L826.42 173.99L826.42 171.91L824.475 171.91L824.475 189.91ZM826.456 178.455C826.456 175.525 827.75 173.545 830.206 173.545C832.76 173.545 834.02 175.695 834.02 178.455C834.02 181.25 832.725 183.465 830.206 183.465C827.786 183.465 826.456 181.42 826.456 178.455ZM845.38 185.275C848.925 185.275 851.31 182.58 851.31 178.525C851.31 174.43 848.925 171.74 845.38 171.74C841.835 171.74 839.445 174.43 839.445 178.525C839.445 182.58 841.835 185.275 845.38 185.275ZM845.38 183.465C842.685 183.465 841.46 181.15 841.46 178.525C841.46 175.9 842.685 173.545 845.38 173.545C848.07 173.545 849.3 175.9 849.3 178.525C849.3 181.15 848.07 183.465 845.38 183.465ZM857.348 182.035L857.348 171.91L855.338 171.91L855.338 185L857.694 185L863.963 174.875L863.963 185L865.973 185L865.973 171.91L863.659 171.91L857.348 182.035ZM862.328 167.545C862.328 168.43 861.848 169.215 860.659 169.215C859.463 169.215 859.024 168.43 859.024 167.545L857.149 167.545C857.149 169.385 858.508 170.68 860.659 170.68C862.838 170.68 864.203 169.385 864.203 167.545L862.328 167.545ZM875.937 185.275C878.831 185.275 880.741 183.5 881.081 181.18L879.072 181.18C878.697 182.615 877.501 183.465 875.937 183.465C873.552 183.465 872.017 181.49 872.017 178.455C872.017 175.49 873.581 173.545 875.937 173.545C877.706 173.545 878.767 174.635 879.072 175.83L881.081 175.83C880.741 173.375 878.661 171.74 875.902 171.74C872.357 171.74 870.001 174.535 870.001 178.525C870.001 182.445 872.251 185.275 875.937 185.275ZM883.951 173.785L888.281 173.785L888.281 185L890.291 185L890.291 173.785L894.586 173.785L894.586 171.91L883.951 171.91L883.951 173.785ZM898.48 185L904.65 185C907.31 185 908.915 183.5 908.915 181.49C908.915 179.434 907.351 178.326 905.915 178.115C907.386 177.805 908.435 176.979 908.435 175.385C908.435 173.299 906.648 171.91 903.835 171.91L898.48 171.91L898.48 185ZM900.39 183.16L900.39 179.135L904.65 179.135C906.032 179.135 906.864 179.961 906.864 181.32C906.864 182.463 906.032 183.16 904.65 183.16L900.39 183.16ZM900.39 177.4L900.39 173.75L903.835 173.75C905.446 173.75 906.425 174.424 906.425 175.525C906.425 176.691 905.446 177.4 903.835 177.4L900.39 177.4ZM918.226 185.275C921.771 185.275 924.156 182.58 924.156 178.525C924.156 174.43 921.771 171.74 918.226 171.74C914.681 171.74 912.29 174.43 912.29 178.525C912.29 182.58 914.681 185.275 918.226 185.275ZM918.226 183.465C915.531 183.465 914.306 181.15 914.306 178.525C914.306 175.9 915.531 173.545 918.226 173.545C920.915 173.545 922.146 175.9 922.146 178.525C922.146 181.15 920.915 183.465 918.226 183.465Z" fill="#F8F8F9" fill-opacity="1.000000" fill-rule="evenodd"/>
</svg>
